<!DOCTYPE svg PUBLIC "-//W3C//DTD SVG 1.1//EN" "http://www.w3.org/Graphics/SVG/1.1/DTD/svg11.dtd">
<!-- Uploaded to: SVG Repo, www.svgrepo.com, Transformed by: SVG Repo Mixer Tools -->
<svg fill="#AB73D3" width="800px" height="800px" viewBox="-274.15 0 1200 1200" xmlns="http://www.w3.org/2000/svg" class="cf-icon-svg">
<g id="SVGRepo_bgCarrier" stroke-width="0"/>
<g id="SVGRepo_tracerCarrier" stroke-linecap="round" stroke-linejoin="round"/>
<g id="SVGRepo_iconCarrier">
<path d="M30 161c-16.5 0-30 13.5-30 30v827.8c0 16.5 13.5 30 30 30h591.7c16.5 0 30-13.5 30-30V343.7L469 161H30zm389.6 60v134.8c0 19.9 16.3 36.2 36.2 36.2h135.9v596.8H60V221h359.6z"/>
<path d="M123.8 768.6h394.8v50H123.8zm0-124.6h394.8v50H123.8zm0-124.5h394.8v50H123.8z"/>
<circle cx="194" cy="382.3" r="60"/>
</g>
</svg>